<?xml version="1.0" standalone="no"?><!DOCTYPE svg PUBLIC "-//W3C//DTD SVG 1.1//EN" "http://www.w3.org/Graphics/SVG/1.1/DTD/svg11.dtd"><svg t="1619791540724" class="icon" viewBox="0 0 1024 1024" version="1.1" xmlns="http://www.w3.org/2000/svg" p-id="6893" xmlns:xlink="http://www.w3.org/1999/xlink" width="200" height="200"><defs><style type="text/css"></style></defs><path d="M1024.01806 203.692c0 45.042-35.956 170.816-140.32 189.772-104.364 18.954-142.812 12.106-195.544 62.77L531.06006 221.232l492.958-17.54z" fill="#593C00" p-id="6894"></path><path d="M1024.01806 203.692c0 45.042-35.956 170.816-140.32 189.772-104.364 18.954-142.812 12.106-195.544 62.77L531.06006 221.232l492.958-17.54z" opacity=".3" p-id="6895"></path><path d="M880.48406 932.924h-280.82c-24.856 0-45.004-20.148-45.004-45.004s20.148-45.004 45.004-45.004h280.82c24.856 0 45.004 20.148 45.004 45.004 0 24.856-20.15 45.004-45.004 45.004z" fill="#F3C74F" p-id="6896"></path><path d="M880.48406 932.924h-280.82c-24.856 0-45.004-20.148-45.004-45.004s20.148-45.004 45.004-45.004h280.82c24.856 0 45.004 20.148 45.004 45.004 0 24.856-20.15 45.004-45.004 45.004z" opacity=".2" p-id="6897"></path><path d="M796.17606 542.452c-28.204 0-55.448-5.504-76.084-15.716-22.292-11.036-31.422-38.054-20.388-60.348 11.036-22.292 38.054-31.424 60.348-20.388 23.892 11.83 77.108 6.214 88.97-9.382 4.622-6.072-0.778-29.948-34.946-68.17-16.58-18.544-14.984-47.018 3.562-63.596 18.542-16.58 47.02-14.984 63.596 3.562 30.368 33.972 48.67 65.022 55.956 94.922 10.094 41.432-3.392 70.634-16.48 87.836-20.562 27.022-55.9 44.72-99.496 49.828a216.46 216.46 0 0 1-25.038 1.452z" fill="#F3C74F" p-id="6898"></path><path d="M881.23606 308.41c-16.576-18.546-45.054-20.142-63.596-3.562-11.456 10.238-16.424 25.016-14.654 39.19 38.686 2.294 75.334 2.376 105.514-1.256-7.678-11.156-16.728-22.584-27.264-34.372z" opacity=".2" p-id="6899"></path><path d="M742.61206 402.068C653.19606 247.194 395.26206 98.624 243.12206 186.462c-152.142 87.84-152.442 385.5-63.024 540.374 89.416 154.876 287.828 207.724 443.162 118.042 155.332-89.682 208.768-287.934 119.352-442.81z" fill="#40BAB3" p-id="6900"></path><path d="M214.52806 775.534c99.462 116.32 271.02 148.856 408.73 69.346 137.714-79.508 195.316-244.346 144.31-388.644l-553.04 319.298z" fill="#FFFFFF" p-id="6901"></path><path d="M330.42406 861.286c91.278 39.876 199.78 37.32 292.836-16.406s149.52-146.416 160.626-245.402L330.42406 861.286z" fill="#0081C6" p-id="6902"></path><path d="M635.86606 797.834c-155.334 89.682-353.746 36.832-443.162-118.04-53.832-93.24-75.124-238.218-50.364-358.018-42.54 126.672-23.356 299.21 37.76 405.064 89.416 154.876 287.828 207.724 443.162 118.042 85.404-49.308 139.992-131.438 156.984-221.132-24.8 70.848-74.182 133.554-144.38 174.084z" opacity=".2" p-id="6903"></path><path d="M264.78406 538.072a16.472 16.472 0 0 1-14.286-8.244 16.476 16.476 0 0 1 6.036-22.508l7.696-4.442a16.474 16.474 0 0 1 22.51 6.034 16.476 16.476 0 0 1-6.036 22.508l-7.696 4.444a16.42 16.42 0 0 1-8.224 2.208zM592.91206 348.632a16.48 16.48 0 0 1-8.258-30.752l7.698-4.444a16.48 16.48 0 0 1 16.484 28.54l-7.698 4.444a16.406 16.406 0 0 1-8.226 2.212zM414.36606 504.69c-16.702 0-32.968-8.662-41.902-24.136a16.48 16.48 0 1 1 28.542-16.478c4.226 7.32 13.626 9.836 20.948 5.614a15.226 15.226 0 0 0 7.142-9.31 15.24 15.24 0 0 0-1.532-11.636 16.48 16.48 0 0 1 6.032-22.51 16.482 16.482 0 0 1 22.512 6.032c4.228 7.32 13.624 9.84 20.948 5.614a15.246 15.246 0 0 0 7.146-9.31 15.232 15.232 0 0 0-1.532-11.636 16.48 16.48 0 0 1 6.032-22.51 16.482 16.482 0 0 1 22.512 6.032 47.964 47.964 0 0 1 4.824 36.644c-3.34 12.46-11.328 22.872-22.5 29.322a48.05 48.05 0 0 1-33.52 5.528c-3.758 11.114-11.33 20.368-21.58 26.284a48.068 48.068 0 0 1-24.072 6.456z" fill="#394049" p-id="6904"></path><path d="M282.69806 614.426a16.48 16.48 0 0 1-8.254-30.752l46.954-27.108a16.48 16.48 0 1 1 16.478 28.542l-46.954 27.108a16.412 16.412 0 0 1-8.224 2.21zM610.82206 424.982a16.48 16.48 0 0 1-8.254-30.752l46.952-27.108c7.878-4.548 17.962-1.852 22.51 6.032a16.48 16.48 0 0 1-6.032 22.51l-46.952 27.108a16.4 16.4 0 0 1-8.224 2.21z" fill="#F0B0B7" p-id="6905"></path><path d="M191.17406 389.4c1.108 1.79 1.94 3.754 2.498 5.782 7.344 26.72 6.382 48.466-0.214 73.086-6.568 24.508-16.146 42.93-35.916 62.544a24.54 24.54 0 0 1-5.708 4.244c-50.114 26.702-113.05 7.976-140.008-43.098-25.024-47.412-9.048-107.042 36.332-135.588 49-30.828 113.056-15.426 143.016 33.03z" fill="#0081C6" p-id="6906"></path><path d="M103.28206 443.796m-48.258 0a48.258 48.258 0 1 0 96.516 0 48.258 48.258 0 1 0-96.516 0Z" fill="#F3C74F" p-id="6907"></path><path d="M166.54006 497.24a24.54 24.54 0 0 1-5.708 4.244c-50.114 26.702-113.05 7.978-140.008-43.098-9.63-18.248-13.166-38.302-11.31-57.7-12.934 28.332-13.078 62.11 2.316 91.276 26.956 51.074 89.894 69.798 140.008 43.098a24.54 24.54 0 0 0 5.708-4.244c19.772-19.614 29.35-38.032 35.916-62.544a168.854 168.854 0 0 0 3.662-16.946c-6.406 16.746-15.54 30.988-30.584 45.914z" opacity=".2" p-id="6908"></path><path d="M745.90206 932.966a44.848 44.848 0 0 1-25.884-8.21l-100.96-71.058-91.458 69.99c-19.758 15.126-48.024 11.36-63.144-8.394-15.118-19.754-11.36-48.024 8.396-63.14l117.716-90.086a45.036 45.036 0 0 1 53.298-1.066l128 90.086c20.344 14.318 25.228 42.416 10.91 62.758-8.774 12.458-22.714 19.12-36.874 19.12z" fill="#F3C74F" p-id="6909"></path><path d="M930.94406 134.484h-177.546c-121.268 0-176.198-29.662-365.15-29.662-137.32 0-259.81 90.296-294.27 226.548a68.186 68.186 0 0 0 30.148 74.652 176.696 176.696 0 0 0 153.708 15.868l26.736-9.75a276.024 276.024 0 0 0 139.196-112.546 72.826 72.826 0 0 1 71.464-33.442c23.116 3.136 346.498 71.57 443.17 26.528s85.702-158.196-27.456-158.196z" fill="#593C00" p-id="6910"></path><path d="M217.99806 156.006c-43.93 29.23-80.068 69.882-103.642 119.04a84.372 84.372 0 0 0 28.882 5.064c46.706 0 84.57-37.864 84.57-84.57a84.204 84.204 0 0 0-9.81-39.534zM930.94406 134.484h-174.714c23.17 52.178 75.404 88.586 136.174 88.586 47.764 0 90.244-22.508 117.504-57.464-14.794-18.492-41.17-31.122-78.964-31.122z" fill="#FFFFFF" opacity=".1" p-id="6911"></path><path d="M638.61406 202.08c-3.546 23.584-78.616 20.99-151.852-1.298-46.024-14.006-55.948-29.18-46.364-46.81 10.112-5.756 80.42 1.384 104.038 9.074 23.62 7.69 87.836 31.38 94.178 39.034z" opacity=".1" p-id="6912"></path><path d="M623.73406 140.442c-27.656-45.318-86.208-62.38-133.806-38.87-23.364 11.542-40.254 30.474-49.528 52.4-2.116 5.002 1.31 10.678 6.722 11.156 57.228 5.066 125.348 30.888 181.57 44.222 4.836 1.146 9.546-2.316 9.924-7.27 1.582-20.824-3.114-42.354-14.882-61.638z" fill="#0081C6" p-id="6913"></path><path d="M577.32606 170.206c-13.326-23.08-42.84-30.988-65.92-17.662a48 48 0 0 0-18.862 19.93c30.056 6.612 61.326 16.168 91.148 24.772a48.048 48.048 0 0 0-6.366-27.04zM80.88806 932.962c-10.54 0-21.12-3.676-29.67-11.168-18.706-16.398-20.58-44.854-4.186-63.56l83.238-94.97a132.02 132.02 0 0 0 31.452-68.332c3.55-24.62 26.39-41.702 51.006-38.154 24.62 3.548 41.704 26.386 38.154 51.006a221.87 221.87 0 0 1-52.868 114.852l-83.238 94.97c-8.9 10.162-21.366 15.356-33.888 15.356z" fill="#F3C74F" p-id="6914"></path></svg>